<svg id="Layer_5" enable-background="new 0 0 64 64" height="512" viewBox="0 0 64 64" width="512" xmlns="http://www.w3.org/2000/svg"><g><g><g><path d="m32 55c-1.654 0-3-1.346-3-3v-3.421c-4.102-1.24-7-5.078-7-9.419v-.16c0-1.654 1.346-3 3-3s3 1.346 3 3v.16c0 2.118 1.723 3.84 3.84 3.84h.319c2.118 0 3.84-1.723 3.84-3.84 0-1.706-1.145-3.225-2.785-3.693l-4.079-1.165c-4.2-1.2-7.135-5.091-7.135-9.462 0-4.341 2.898-8.179 7-9.419v-3.421c0-1.654 1.346-3 3-3s3 1.346 3 3v3.421c4.102 1.24 7 5.078 7 9.419v.16c0 1.654-1.346 3-3 3s-3-1.346-3-3v-.16c0-2.118-1.723-3.84-3.84-3.84h-.32c-2.117 0-3.84 1.723-3.84 3.84 0 1.706 1.145 3.225 2.785 3.693l4.079 1.165c4.201 1.2 7.136 5.091 7.136 9.462 0 4.341-2.898 8.179-7 9.419v3.421c0 1.654-1.346 3-3 3z" fill="#f0bc5e"/></g></g><g><g><path d="m32 55c-1.654 0-3-1.346-3-3v-3.421c-4.102-1.24-7-5.078-7-9.419v-.16c0-1.654 1.346-3 3-3s3 1.346 3 3v.16c0 2.118 1.723 3.84 3.84 3.84h.319c2.118 0 3.84-1.723 3.84-3.84 0-1.706-1.145-3.225-2.785-3.693l-4.079-1.165c-4.2-1.2-7.135-5.091-7.135-9.462 0-4.341 2.898-8.179 7-9.419v-3.421c0-1.654 1.346-3 3-3s3 1.346 3 3v3.421c4.102 1.24 7 5.078 7 9.419v.16c0 1.654-1.346 3-3 3s-3-1.346-3-3v-.16c0-2.118-1.723-3.84-3.84-3.84h-.32c-2.117 0-3.84 1.723-3.84 3.84 0 1.706 1.145 3.225 2.785 3.693l4.079 1.165c4.201 1.2 7.136 5.091 7.136 9.462 0 4.341-2.898 8.179-7 9.419v3.421c0 1.654-1.346 3-3 3z" fill="#f0bc5e"/></g></g><g><path d="m50 17h-11.924c.753.572 1.424 1.244 1.984 2h9.94z"/><path d="m35 13h15v2h-15z"/><path d="m60.277 4-2.868-1.721c-1.395-.837-2.992-1.279-4.618-1.279h-8.791c-1.103 0-2 .897-2 2 0 .732.212 1.409.556 2h-4.556c-1.654 0-3 1.346-3 3 0 .352.072.686.184 1h-3.184c1.302 0 2.402.839 2.816 2h3.184 12v-2h-12c-.551 0-1-.449-1-1s.449-1 1-1h8 3.586l.95.95c1.322 1.322 3.08 2.05 4.95 2.05h1.514v-2h-1.515c-1.335 0-2.591-.52-3.536-1.464l-1.535-1.536h-.414-4c-1.103 0-2-.897-2-2h8.791c1.264 0 2.505.344 3.589.994l3.343 2.006h1.277v12h-1.277l-3.343 2.006c-1.084.65-2.325.994-3.589.994h-11.581c.273.637.474 1.308.608 2h10.973c1.626 0 3.223-.442 4.619-1.279l2.867-1.721h2.723v-16z"/><path d="m14 49h15v2h-15z"/><path d="m29.184 53h-3.184-12v2h12c.551 0 1 .449 1 1s-.449 1-1 1h-2-10v2h10c.551 0 1 .449 1 1s-.449 1-1 1h-12.791c-1.264 0-2.505-.344-3.589-.994l-3.343-2.006h-1.277v-12h1.277l3.343-2.006c1.084-.65 2.325-.994 3.589-.994h8.791c0 1.103-.897 2-2 2h-4-.414l-1.536 1.536c-.944.944-2.2 1.464-3.535 1.464h-1.515v2h1.515c1.87 0 3.627-.728 4.95-2.05l.95-.95h3.585 7.924c-.753-.572-1.424-1.244-1.984-2h-2.496c.344-.591.556-1.268.556-2 0-1.103-.897-2-2-2h-8.791c-1.626 0-3.223.442-4.619 1.279l-2.867 1.721h-2.723v16h2.723l2.868 1.721c1.395.837 2.992 1.279 4.618 1.279h12.791c1.654 0 3-1.346 3-3 0-.395-.081-.77-.22-1.116 1.275-.346 2.22-1.501 2.22-2.884 0-.352-.072-.686-.184-1h3.184c-1.302 0-2.402-.839-2.816-2z"/><path d="m44 38h10v2h-10z"/><path d="m10 24h10v2h-10z"/><path d="m10.913 28.592h10v2h-10z" transform="matrix(.924 -.383 .383 .924 -10.116 8.346)"/><path d="m14.913 15.408h2v10h-2z" transform="matrix(.383 -.924 .924 .383 -9.031 27.299)"/><path d="m43.087 33.408h10v2h-10z" transform="matrix(.924 -.383 .383 .924 -9.509 21.029)"/><path d="m47.087 38.592h2v10h-2z" transform="matrix(.383 -.924 .924 .383 -10.59 71.335)"/></g></g></svg>