<svg height="512" viewBox="0 0 60 60" width="512" xmlns="http://www.w3.org/2000/svg"><g id="Page-1" fill="none" fill-rule="evenodd"><g id="073---Government-Advice" fill-rule="nonzero"><path id="Shape" d="m30 14-6.646 2.49c-.213216.0791424-.354696.2825696-.354696.51s.14148.4308576.354696.51l6.646 2.49z" fill="#e7ecfb"/><path id="Shape" d="m45 36v2h-6.13l-8.3-5.82c-.3421519-.2398524-.7978481-.2398524-1.14 0l-8.3 5.82h-6.13v-2c.0032948-1.1032019.8967981-1.9967052 2-2h2c0-6.0751322 4.9248678-11 11-11s11 4.9248678 11 11h2c1.1032019.0032948 1.9967052.8967981 2 2z" fill="#e7ecfb"/><path id="Shape" d="m43 34h-2c.0222566-3.1855561-1.3471393-6.2221233-3.7494716-8.3142664-2.4023322-2.0921431-5.5982326-3.0314011-8.7505284-2.5717336 5.4430247.7430692 9.5004822 5.3924884 9.5 10.886h2c1.1032019.0032948 1.9967052.8967981 2 2v2h3v-2c-.0032948-1.1032019-.8967981-1.9967052-2-2z" fill="#c9d8fb"/><path id="Shape" d="m46 44.04v10.96h-32v-10.96c.0028139-.6516227.3191865-1.2620356.85-1.64l6.28-4.4 8.3-5.82c.3421519-.2398524.7978481-.2398524 1.14 0l8.3 5.82 6.28 4.4c.5308135.3779644.8471861.9883773.85 1.64z" fill="#e7ecfb"/><path id="Shape" d="m45.15 42.4-6.28-4.4-8.3-5.82c-.3421519-.2398524-.7978481-.2398524-1.14 0l-.93.652 7.37 5.168 6.28 4.4c.5308135.3779644.8471861.9883773.85 1.64v10.96h3v-10.96c-.0028139-.6516227-.3191865-1.2620356-.85-1.64z" fill="#c9d8fb"/><path id="Shape" d="m58 39v16h-12v-10.96c-.0028139-.6516227-.3191865-1.2620356-.85-1.64l-6.28-4.4h18.13c.5522847 0 1 .4477153 1 1z" fill="#a3c1f6"/><path id="Shape" d="m57 38h-3c.5522847 0 1 .4477153 1 1v16h3v-16c0-.5522847-.4477153-1-1-1z" fill="#7fabf9"/><path id="Shape" d="m21.13 38-6.28 4.4c-.5308135.3779644-.8471861.9883773-.85 1.64v10.96h-12v-16c0-.5522847.44771525-1 1-1z" fill="#a3c1f6"/><path id="Shape" d="m21 44c1.1045695 0 2 .8954305 2 2v9h-4v-9c0-1.1045695.8954305-2 2-2z" fill="#a3c1f6"/><path id="Shape" d="m39 44c1.1045695 0 2 .8954305 2 2v9h-4v-9c0-1.1045695.8954305-2 2-2z" fill="#a3c1f6"/><path id="Shape" d="m30 42c1.1045695 0 2 .8954305 2 2v11h-4v-11c0-1.1045695.8954305-2 2-2z" fill="#a3c1f6"/><rect id="Rectangle-path" fill="#e7ecfb" height="4" rx="1" width="58" x="1" y="55"/><path id="Shape" d="m58 55h-3c.5522847 0 1 .4477153 1 1v2c0 .5522847-.4477153 1-1 1h3c.5522847 0 1-.4477153 1-1v-2c0-.5522847-.4477153-1-1-1z" fill="#c9d8fb"/><path id="Shape" d="m59 3v14c-.0032948 1.1032019-.8967981 1.9967052-2 2h-9l-5.59 4.79c-.2515517.2180168-.6070372.2695653-.9101542.1319803-.303117-.1375851-.4983454-.439103-.4998458-.7719803v-4.15h-4c-1.1032019-.0032948-1.9967052-.8967981-2-2v-14c.0032948-1.10320187.8967981-1.9967052 2-2h20c1.1032019.0032948 1.9967052.89679813 2 2z" fill="#e7ecfb"/><path id="Shape" d="m57 1h-3c1.1032019.0032948 1.9967052.89679813 2 2v14c-.0032948 1.1032019-.8967981 1.9967052-2 2h3c1.1032019-.0032948 1.9967052-.8967981 2-2v-14c-.0032948-1.10320187-.8967981-1.9967052-2-2z" fill="#c9d8fb"/><path id="Shape" d="m4 58v-2c0-.5522847.44771525-1 1-1v-16c0-.5522847.44771525-1 1-1h-3c-.55228475 0-1 .4477153-1 1v16c-.55228475 0-1 .4477153-1 1v2c0 .5522847.44771525 1 1 1h3c-.55228475 0-1-.4477153-1-1z" fill="#fff"/><path id="Rectangle-path" d="m1 39h2v8h-2z" fill="#fff"/><g fill="#428dff"><path id="Shape" d="m2.02 44c-.55228475.0027614-1.00223858-.4427153-1.005-.995s.44271525-1.0022386.995-1.005h.01c.55228475 0 1 .4477153 1 1s-.44771525 1-1 1z"/><path id="Shape" d="m6 46c.55228475 0 1-.4477153 1-1v-2c0-.5522847-.44771525-1-1-1s-1 .4477153-1 1v2c0 .5522847.44771525 1 1 1z"/><path id="Shape" d="m10 46c.5522847 0 1-.4477153 1-1v-2c0-.5522847-.4477153-1-1-1-.55228475 0-1 .4477153-1 1v2c0 .5522847.44771525 1 1 1z"/><path id="Shape" d="m5 51c0 .5522847.44771525 1 1 1s1-.4477153 1-1v-2c0-.5522847-.44771525-1-1-1s-1 .4477153-1 1z"/><path id="Shape" d="m9 51c0 .5522847.44771525 1 1 1 .5522847 0 1-.4477153 1-1v-2c0-.5522847-.4477153-1-1-1-.55228475 0-1 .4477153-1 1z"/><path id="Shape" d="m50 46c.5522847 0 1-.4477153 1-1v-2c0-.5522847-.4477153-1-1-1s-1 .4477153-1 1v2c0 .5522847.4477153 1 1 1z"/><path id="Shape" d="m54 46c.5522847 0 1-.4477153 1-1v-2c0-.5522847-.4477153-1-1-1s-1 .4477153-1 1v2c0 .5522847.4477153 1 1 1z"/><path id="Shape" d="m50 52c.5522847 0 1-.4477153 1-1v-2c0-.5522847-.4477153-1-1-1s-1 .4477153-1 1v2c0 .5522847.4477153 1 1 1z"/><path id="Shape" d="m54 52c.5522847 0 1-.4477153 1-1v-2c0-.5522847-.4477153-1-1-1s-1 .4477153-1 1v2c0 .5522847.4477153 1 1 1z"/><path id="Shape" d="m59 54.278v-15.278c0-1.1045695-.8954305-2-2-2h-11v-1c0-1.6568542-1.3431458-3-3-3h-1.042c-.4970308-5.8326251-5.1251036-10.4581637-10.958-10.952v-9.048c0-.5522847-.4477153-1-1-1s-1 .4477153-1 1v.307l-6 2.247c-.6030578.225756-1.0026868.802071-1.0026868 1.446s.399629 1.220244 1.0026868 1.446l6 2.247v1.355c-5.8328964.4938363-10.4609692 5.1193749-10.958 10.952h-1.042c-1.6568542 0-3 1.3431458-3 3v1h-11c-1.1045695 0-2 .8954305-2 2 0 .5522847.44771525 1 1 1s1-.4477153 1-1h14.963l-3.686 2.584c-.799713.5623066-1.2760297 1.4783862-1.277 2.456v9.96h-10v-7c0-.5522847-.44771525-1-1-1s-1 .4477153-1 1v7.278c-.61675126.3544126-.997855 1.0106732-1 1.722v2c0 1.1045695.8954305 2 2 2h56c1.1045695 0 2-.8954305 2-2v-2c-.002145-.7113268-.3832487-1.3675874-1-1.722zm-2-.278h-10v-9.96c-.0001845-.9780457-.477122-1.8946018-1.278-2.456l-3.686-2.584h14.964zm-32.156-37 4.156-1.557v3.114zm-8.844 20v-1c0-.5522847.4477153-1 1-1h4c.5522847 0 1-.4477153 1-1s-.4477153-1-1-1h-.949c.5129662-5.1104059 4.8139136-9.0012508 9.95-9.0012508s9.4370338 3.8908449 9.95 9.0012508h-.951c-.5522847 0-1 .4477153-1 1s.4477153 1 1 1h4c.5522847 0 1 .4477153 1 1v1h-4.816l-8.043-5.639c-.6860314-.4765397-1.5959686-.4765397-2.282 0l-8.043 5.639zm-1 7.04c-.0000472-.326133.1589443-.6317997.426-.819l14.566-10.221 14.581 10.221c.2674349.1869796.4268187.4926831.427.819v9.96h-3v-8c0-1.6568542-1.3431458-3-3-3s-3 1.3431458-3 3v8h-3v-10c0-1.6568542-1.3431458-3-3-3s-3 1.3431458-3 3v10h-3v-8c0-1.6568542-1.3431458-3-3-3s-3 1.3431458-3 3v8h-3zm25 9.96h-2v-8c0-.5522847.4477153-1 1-1s1 .4477153 1 1zm-9 0h-2v-10c0-.5522847.4477153-1 1-1s1 .4477153 1 1zm-9 0h-2v-8c0-.5522847.4477153-1 1-1s1 .4477153 1 1zm-20 4v-2h56v2z"/><path id="Shape" d="m57 0h-20c-1.6568542 0-3 1.34314575-3 3v14c0 1.6568542 1.3431458 3 3 3h3v3.15c-.0039852.7229726.4180527 1.380521 1.077 1.678.6581178.3078344 1.4358344.19886 1.984-.278l5.309-4.55h8.63c1.6568542 0 3-1.3431458 3-3v-14c0-1.65685425-1.3431458-3-3-3zm1 17c0 .5522847-.4477153 1-1 1h-11c-.5522847 0-1 .4477153-1 1 .0039097.3449499.1883552.662606.486.837l-3.486 2.987v-2.824c.5522847 0 1-.4477153 1-1s-.4477153-1-1-1h-5c-.5522847 0-1-.4477153-1-1v-14c0-.55228475.4477153-1 1-1h20c.5522847 0 1 .44771525 1 1z"/><path id="Shape" d="m55 5h-16c-.5522847 0-1 .44771525-1 1s.4477153 1 1 1h16c.5522847 0 1-.44771525 1-1s-.4477153-1-1-1z"/><path id="Shape" d="m55 9h-11c-.5522847 0-1 .44771525-1 1 0 .5522847.4477153 1 1 1h11c.5522847 0 1-.4477153 1-1 0-.55228475-.4477153-1-1-1z"/><path id="Shape" d="m39 11h1c.5522847 0 1-.4477153 1-1 0-.55228475-.4477153-1-1-1h-1c-.5522847 0-1 .44771525-1 1 0 .5522847.4477153 1 1 1z"/><path id="Shape" d="m49 13h-10c-.5522847 0-1 .4477153-1 1s.4477153 1 1 1h10c.5522847 0 1-.4477153 1-1s-.4477153-1-1-1z"/></g></g></g></svg>